<svg width="42" height="18" viewBox="0 0 42 18" fill="none" xmlns="http://www.w3.org/2000/svg">
<path d="M24.1331 0.00161541C21.6937 -0.040656 18.7142 0.744111 16.6872 2.65865C16.6427 2.6978 16.6028 2.74163 16.5683 2.79017C15.7912 2.5746 14.9836 2.45052 14.1588 2.44485C11.0751 2.42283 8.17551 3.9403 6.40715 6.49362C6.35617 6.56241 6.31703 6.64079 6.2913 6.72279C5.60634 6.91027 4.94801 7.1683 4.35572 7.52399C2.97015 8.3565 1.73665 9.94784 0.707652 11.4472C-0.0407092 12.5378 -0.182984 13.8159 0.22153 14.8995C0.625947 15.9831 1.55122 16.858 2.78394 17.2721C2.804 17.2721 2.82436 17.2878 2.845 17.2908C2.845 17.2918 2.845 17.2904 2.86066 17.2908C2.91193 17.3065 2.96438 17.3111 3.01722 17.3129C3.01722 17.3132 3.01722 17.3119 3.03287 17.3129C6.47037 18.1474 10.0466 18.2304 13.512 17.5145L34.7242 14.8421C36.7444 14.5873 38.7071 13.989 40.5279 13.0714C40.6333 13.0181 40.7253 12.9415 40.797 12.8484C41.5631 11.8462 41.5518 10.7099 41.4452 9.68373C41.1467 6.81055 39.377 4.34169 36.9533 2.89233C35.742 2.16784 34.4603 1.76401 33.1462 1.63533C31.9624 1.51948 30.7514 1.63553 29.538 1.93808C28.3007 0.933059 26.7926 0.272564 25.1499 0.0729489C24.7945 0.0274483 24.4349 0.0228545 24.1329 0.00240376L24.1331 0.00161541Z" fill="currentColor"/>
<path d="M24.1174 1.57602C24.4104 1.57602 24.6886 1.59324 24.9493 1.62455C27.4943 1.93337 29.6169 3.50171 30.5756 5.89954C30.7287 6.30396 31.1807 6.50749 31.585 6.35436C31.9893 6.20112 32.1929 5.74905 32.0398 5.34493C32.0361 5.33495 32.0322 5.32526 32.028 5.31547C31.7292 4.56799 31.331 3.88578 30.8569 3.27587C32.7306 2.98516 34.4763 3.23821 36.1347 4.22973C38.1735 5.44904 39.6326 7.51232 39.8745 9.84087C39.9653 10.7159 39.9105 11.2156 39.5625 11.7429C37.9666 12.5159 36.2718 13.0623 34.514 13.284L13.2406 15.9655C13.2201 15.9699 13.1997 15.9751 13.1796 15.9812C9.90023 16.6585 6.51274 16.5847 3.26322 15.7763C2.44186 15.4948 1.90926 14.96 1.68225 14.3513C1.45337 13.7378 1.50142 13.0435 1.99116 12.3301C2.96908 10.9051 4.21433 9.42931 5.15291 8.86559C6.37614 8.13073 7.74849 7.78923 9.2412 8.16537C11.9134 8.83868 12.5773 11.5292 12.5773 11.5292C12.6758 11.9502 13.0969 12.2117 13.5179 12.1133C13.9389 12.0148 14.2004 11.5938 14.1019 11.1728C14.1004 11.1662 14.0987 11.1594 14.097 11.1529C14.097 11.1529 13.195 7.54871 9.62331 6.64878C9.22193 6.54711 8.82769 6.49535 8.43687 6.47138C9.91481 4.90019 11.9687 3.99488 14.1398 4.00985C16.7041 4.02707 19.0994 5.31704 20.5491 7.47152C20.7655 7.84589 21.2442 7.97397 21.6186 7.75763C21.993 7.54147 22.1211 7.0625 21.9048 6.68813C21.8871 6.6575 21.8673 6.62814 21.8456 6.60006C20.9167 5.21988 19.6533 4.14499 18.2129 3.42911C19.8377 2.17574 22.2467 1.56477 24.1176 1.57602H24.1174Z" fill="white"/>
</svg>
