<svg width="64" height="64" viewBox="0 0 64 64" fill="none" xmlns="http://www.w3.org/2000/svg">
<path d="M10.9625 54.1437C13.4062 55.75 21.3437 61.3062 41.4937 39.7875C61.6437 18.2687 55.4312 13.1687 53.7562 11.3562C52.0812 9.54375 37.2812 2.00625 19.0062 19.0125C1.34999 35.4375 10.9625 54.1437 10.9625 54.1437Z" fill="#EAAD6A"/>
<path d="M15.1187 43.5312C15.1187 43.5312 16.7875 45.1625 18.1562 43.8125C19.525 42.4562 18.0187 41.3 18.0187 41.3L10.725 32.125L9.01874 36.3375L15.1187 43.5312ZM38.9562 20.2187C38.9562 20.2187 40.625 21.85 41.9937 20.5C43.3625 19.1437 41.8562 17.9875 41.8562 17.9875L35.3687 9.61874L31.4875 10.8187L38.9562 20.2187ZM24.1562 28.9875C24.1562 28.9875 25.825 30.6187 27.1937 29.2687C28.5625 27.9125 27.0562 26.7562 27.0562 26.7562L20.15 17.9687L17.55 20.75L24.1562 28.9875Z" fill="#FFC661"/>
<path d="M37.8 36.0875C23.5813 51.275 13.4563 53.6063 9.35626 50.4188C10.0063 52.5625 10.65 53.825 10.65 53.825C13.0938 55.4313 21.0313 60.9875 41.1813 39.4688C61.3313 17.95 55.1188 12.85 53.4438 11.0375C53.0625 10.625 52.0125 9.925 50.4063 9.28125C52.6875 12.7 51.3563 21.6 37.8 36.0875Z" fill="#D19152"/>
<path d="M19.4063 17.5625C19.1375 17.8125 18.8688 18.0688 18.6 18.3375C18.5563 18.3813 18.5063 18.425 18.4625 18.4688C18.4375 18.4938 18.4188 18.5188 18.3938 18.5375C18.1563 18.775 17.9125 19.0313 17.6625 19.3C6.21876 31.4188 4.38126 48.3 10.6375 54.5563C16.2938 60.2125 26.875 55.6125 41.2438 41.2438C55.6063 26.8813 60.2125 16.2938 54.5563 10.6375C48.3188 4.4 31.5125 6.20625 19.4063 17.5625ZM41.225 18.0375C41.4438 18.2313 41.5688 18.5 41.575 18.7875C41.5875 19.0813 41.475 19.3563 41.2688 19.5625C40.875 19.9563 40.25 19.975 39.8313 19.6063L39.6563 19.4563C37.3438 17.4125 35.325 15.0563 33.6625 12.4563L32.7688 11.0625C32.8438 11.0313 32.925 11.0063 33 10.975C33.55 10.7625 34.1 10.5625 34.6438 10.3875C34.6688 10.3813 34.6875 10.375 34.7125 10.3625L34.925 10.6938C36.6813 13.4188 38.7938 15.8938 41.225 18.0375ZM27.1625 27.6938C27.3813 27.8875 27.5063 28.1563 27.5125 28.4438C27.525 28.7375 27.4125 29.0125 27.2063 29.2188C26.8125 29.6125 26.1875 29.6313 25.7688 29.2625L25.5938 29.1125C23.2813 27.0688 21.2625 24.7125 19.6 22.1125L18.6688 20.65C19.0875 20.2 19.5188 19.7563 19.9625 19.325C20.0125 19.275 20.0688 19.225 20.1188 19.175L20.8625 20.3438C22.6188 23.0688 24.7313 25.5438 27.1625 27.6938ZM17.5063 41.7563C17.725 41.95 17.85 42.2188 17.8563 42.5063C17.8688 42.8 17.7563 43.075 17.55 43.2813C17.1563 43.675 16.5313 43.6938 16.1125 43.325L15.9375 43.175C13.625 41.1313 11.6063 38.775 9.95001 36.175L9.92501 36.1375C10.1563 35.3188 10.4188 34.4813 10.725 33.6438L11.2125 34.4063C12.9625 37.1313 15.0813 39.6063 17.5063 41.7563ZM40.0688 40.0688C32.3063 47.8313 18.3188 59.8813 11.8188 53.3813C8.86876 50.4313 8.04376 44.6875 9.40001 38.2875C10.975 40.5313 12.7875 42.6 14.85 44.4188L15.025 44.5688C16.0938 45.5125 17.725 45.4625 18.7375 44.4563C19.2625 43.9313 19.5563 43.2 19.5313 42.4563C19.5063 41.7125 19.175 41 18.6188 40.5063C16.3063 38.4625 14.2875 36.1063 12.625 33.5063L11.4938 31.7375C12.9313 28.3625 14.9438 25.0063 17.5375 21.9438L18.2188 23.0063C19.9625 25.7375 22.0813 28.2125 24.5063 30.3563L24.6813 30.5063C25.75 31.45 27.3813 31.4063 28.3938 30.3938C28.9188 29.8688 29.2125 29.1375 29.1875 28.3938C29.1625 27.65 28.8313 26.9375 28.275 26.4438C25.9625 24.4 23.9438 22.0438 22.2813 19.4438L21.375 18.025C24.4375 15.325 27.8188 13.2188 31.225 11.7L32.275 13.3438C34.0188 16.075 36.1375 18.55 38.5625 20.6938L38.7375 20.8438C39.8063 21.7875 41.4375 21.7375 42.45 20.7313C42.975 20.2063 43.2688 19.475 43.2438 18.7313C43.2188 17.9875 42.8875 17.275 42.3313 16.7813C40.0375 14.7563 38.0438 12.4188 36.3875 9.85C43.5375 7.8875 50.1438 8.5625 53.3875 11.8063C59.8813 18.3188 47.8313 32.3063 40.0688 40.0688Z" fill="#004364"/>
<path d="M27.9125 16.1125C27.9125 16.3678 28.0139 16.6126 28.1944 16.7931C28.3749 16.9736 28.6197 17.075 28.875 17.075C29.1303 17.075 29.3751 16.9736 29.5556 16.7931C29.7361 16.6126 29.8375 16.3678 29.8375 16.1125C29.8375 15.8572 29.7361 15.6124 29.5556 15.4319C29.3751 15.2514 29.1303 15.15 28.875 15.15C28.6197 15.15 28.3749 15.2514 28.1944 15.4319C28.0139 15.6124 27.9125 15.8572 27.9125 16.1125Z" fill="#004364"/>
<path d="M41.9562 11.7625C41.9562 11.8889 41.9811 12.0141 42.0295 12.1308C42.0779 12.2476 42.1488 12.3537 42.2381 12.4431C42.3275 12.5325 42.4336 12.6034 42.5504 12.6517C42.6672 12.7001 42.7923 12.725 42.9187 12.725C43.0451 12.725 43.1703 12.7001 43.2871 12.6517C43.4038 12.6034 43.51 12.5325 43.5993 12.4431C43.6887 12.3537 43.7596 12.2476 43.808 12.1308C43.8563 12.0141 43.8812 11.8889 43.8812 11.7625C43.8812 11.6361 43.8563 11.5109 43.808 11.3942C43.7596 11.2774 43.6887 11.1713 43.5993 11.0819C43.51 10.9925 43.4038 10.9216 43.2871 10.8733C43.1703 10.8249 43.0451 10.8 42.9187 10.8C42.7923 10.8 42.6672 10.8249 42.5504 10.8733C42.4336 10.9216 42.3275 10.9925 42.2381 11.0819C42.1488 11.1713 42.0779 11.2774 42.0295 11.3942C41.9811 11.5109 41.9562 11.6361 41.9562 11.7625Z" fill="#004364"/>
<path d="M41.6 32.5125C41.6 32.6389 41.6249 32.7641 41.6733 32.8808C41.7216 32.9976 41.7925 33.1037 41.8819 33.1931C41.9713 33.2825 42.0774 33.3534 42.1942 33.4017C42.311 33.4501 42.4361 33.475 42.5625 33.475C42.6889 33.475 42.8141 33.4501 42.9308 33.4017C43.0476 33.3534 43.1537 33.2825 43.2431 33.1931C43.3325 33.1037 43.4034 32.9976 43.4517 32.8808C43.5001 32.7641 43.525 32.6389 43.525 32.5125C43.525 32.3861 43.5001 32.2609 43.4517 32.1442C43.4034 32.0274 43.3325 31.9213 43.2431 31.8319C43.1537 31.7425 43.0476 31.6716 42.9308 31.6233C42.8141 31.5749 42.6889 31.55 42.5625 31.55C42.4361 31.55 42.311 31.5749 42.1942 31.6233C42.0774 31.6716 41.9713 31.7425 41.8819 31.8319C41.7925 31.9213 41.7216 32.0274 41.6733 32.1442C41.6249 32.2609 41.6 32.3861 41.6 32.5125Z" fill="#004364"/>
<path d="M36.975 37.5812C36.975 37.8365 37.0764 38.0813 37.2569 38.2618C37.4374 38.4423 37.6822 38.5437 37.9375 38.5437C38.1928 38.5437 38.4376 38.4423 38.6181 38.2618C38.7986 38.0813 38.9 37.8365 38.9 37.5812C38.9 37.326 38.7986 37.0812 38.6181 36.9007C38.4376 36.7202 38.1928 36.6187 37.9375 36.6187C37.6822 36.6187 37.4374 36.7202 37.2569 36.9007C37.0764 37.0812 36.975 37.326 36.975 37.5812Z" fill="#004364"/>
<path d="M14.6313 28.6125C14.6313 28.7389 14.6562 28.8641 14.7045 28.9808C14.7529 29.0976 14.8238 29.2037 14.9132 29.2931C15.0025 29.3825 15.1086 29.4534 15.2254 29.5017C15.3422 29.5501 15.4674 29.575 15.5938 29.575C15.7202 29.575 15.8453 29.5501 15.9621 29.5017C16.0789 29.4534 16.185 29.3825 16.2743 29.2931C16.3637 29.2037 16.4346 29.0976 16.483 28.9808C16.5314 28.8641 16.5563 28.7389 16.5563 28.6125C16.5563 28.4861 16.5314 28.3609 16.483 28.2442C16.4346 28.1274 16.3637 28.0213 16.2743 27.9319C16.185 27.8425 16.0789 27.7716 15.9621 27.7233C15.8453 27.6749 15.7202 27.65 15.5938 27.65C15.4674 27.65 15.3422 27.6749 15.2254 27.7233C15.1086 27.7716 15.0025 27.8425 14.9132 27.9319C14.8238 28.0213 14.7529 28.1274 14.7045 28.2442C14.6562 28.3609 14.6313 28.4861 14.6313 28.6125Z" fill="#004364"/>
<path d="M23.5938 18.2938C23.5938 18.549 23.6952 18.7938 23.8757 18.9743C24.0562 19.1548 24.301 19.2563 24.5562 19.2563C24.8115 19.2563 25.0563 19.1548 25.2368 18.9743C25.4173 18.7938 25.5187 18.549 25.5187 18.2938C25.5187 18.0385 25.4173 17.7937 25.2368 17.6132C25.0563 17.4327 24.8115 17.3313 24.5562 17.3313C24.301 17.3313 24.0562 17.4327 23.8757 17.6132C23.6952 17.7937 23.5938 18.0385 23.5938 18.2938Z" fill="#004364"/>
<path d="M11.35 47.3937C11.35 47.649 11.4514 47.8938 11.6319 48.0743C11.8124 48.2548 12.0572 48.3562 12.3125 48.3562C12.5678 48.3562 12.8126 48.2548 12.9931 48.0743C13.1736 47.8938 13.275 47.649 13.275 47.3937C13.275 47.1385 13.1736 46.8937 12.9931 46.7132C12.8126 46.5327 12.5678 46.4312 12.3125 46.4312C12.0572 46.4312 11.8124 46.5327 11.6319 46.7132C11.4514 46.8937 11.35 47.1385 11.35 47.3937Z" fill="#004364"/>
</svg>
