<svg width="142" height="76" viewBox="0 0 142 76" fill="none" xmlns="http://www.w3.org/2000/svg">
<path d="M0 70.3887V52.1967H6.768C9.696 52.1967 11.76 54.2367 11.76 57.1407C11.76 58.2447 11.208 59.5167 10.392 60.4047C10.632 60.5487 10.872 60.7167 11.088 60.8607C12.408 61.7247 13.344 63.4527 13.344 65.0607C13.344 68.1807 11.28 70.3887 8.352 70.3887H0ZM3.648 67.2687H7.68C8.928 67.2687 9.696 66.4287 9.696 65.0607C9.696 63.5727 8.928 62.6367 7.68 62.6367H3.648V67.2687ZM3.648 59.5167H6.312C7.44 59.4927 8.136 58.7247 8.136 57.5007C8.136 56.1567 7.416 55.3167 6.24 55.3167H3.648V59.5167Z" fill="#EBECF5"/>
<path d="M20.1906 70.4607C16.8786 70.4607 14.7666 67.9887 14.7666 64.4847C14.7666 60.9807 16.8786 58.5087 20.1906 58.5087C21.1746 58.5087 22.4946 58.8687 23.3106 59.9727V58.4847H26.9586V70.4367H23.3106V69.0207C22.4946 70.1007 21.1746 70.4607 20.1906 70.4607ZM18.4146 64.4847C18.4146 66.4047 19.2786 67.5087 20.7666 67.5087C22.1826 67.5087 23.2866 66.2367 23.3106 64.4847C23.2866 62.7327 22.1826 61.4607 20.7666 61.4607C19.2786 61.4607 18.4146 62.5647 18.4146 64.4847Z" fill="#EBECF5"/>
<path d="M33.2996 52.8687V62.0607L36.4196 58.4847H41.3396L36.5396 63.9087L40.8836 70.4367H36.5156L33.9236 66.5487L33.2996 67.2927V70.4367H29.6516V52.8687H33.2996Z" fill="#EBECF5"/>
<path d="M43.473 58.4607H47.121V70.3887H43.473V58.4607ZM43.401 54.3087C43.401 53.2047 44.193 52.4127 45.297 52.4127C46.401 52.4127 47.193 53.2047 47.193 54.3087C47.193 55.4127 46.401 56.2047 45.297 56.2047C44.193 56.2047 43.401 55.4127 43.401 54.3087Z" fill="#EBECF5"/>
<path d="M58.1513 64.3887C58.1513 62.5167 57.4553 61.5807 55.8473 61.5807C54.7192 61.6047 53.6633 62.5407 53.7353 64.3887V70.4367H50.0873V58.5087H53.7353V60.2127C54.4793 59.1327 55.7752 58.5807 56.8553 58.5807C58.4393 58.5807 61.7993 59.4447 61.7993 64.3887V70.4367H58.1513V64.3887Z" fill="#EBECF5"/>
<path d="M69.6111 67.4127C71.2431 67.4127 72.2271 66.0927 72.2271 64.4127C72.2271 62.7567 71.2431 61.4367 69.6111 61.4367C68.1711 61.4367 67.3071 62.5167 67.3071 64.4127C67.3071 66.3087 68.1711 67.4127 69.6111 67.4127ZM63.6591 64.4367C63.6591 60.9327 65.7711 58.4607 69.0831 58.4607C69.7311 58.4607 71.2431 58.6527 72.2271 60.0207V58.4607H75.8751V69.3327C75.8751 72.6207 73.5711 75.5247 69.7311 75.5247C67.6191 75.5247 65.4351 74.7327 64.3551 72.7167L67.1151 70.7247C68.0511 71.8767 68.5071 72.3327 69.7311 72.3327C71.4831 72.3327 72.2271 71.0367 72.2271 69.8607V69.2847C71.1711 70.2687 69.7791 70.4127 69.0831 70.4127C65.7711 70.4127 63.6591 67.9167 63.6591 64.4367Z" fill="#EBECF5"/>
<path d="M99.1892 52.1967V70.3887H95.0612L87.3572 58.2687V70.3887H83.7092V52.1967H87.8372L95.5412 64.3407V52.1967H99.1892Z" fill="#EBECF5"/>
<path d="M107.308 70.4367C103.9 70.4367 101.5 67.9887 101.5 64.4847C101.5 60.9567 103.9 58.4847 107.308 58.4847C111.1 58.4847 112.324 61.6047 112.372 61.7007C113.092 63.1167 112.9 65.2767 112.9 65.7087H104.908C105.22 66.7887 106.324 67.4367 107.332 67.4367C108.604 67.4367 109.252 66.9087 109.492 66.4287L112.492 67.5567C111.94 68.9247 110.26 70.4367 107.308 70.4367ZM104.932 63.5727H109.564C109.276 62.2767 108.532 61.4607 107.308 61.4607C106.108 61.4607 105.22 62.2047 104.932 63.5727Z" fill="#EBECF5"/>
<path d="M130.958 58.5087L127.478 70.4367H124.094L122.246 63.9327L120.374 70.4367H116.99L113.486 58.5087H117.254L118.766 64.8687L120.422 58.5087H124.022L125.678 64.8687L127.19 58.5087H130.958Z" fill="#EBECF5"/>
<path d="M134.639 65.8287C134.927 66.8847 136.007 67.4607 136.655 67.4607C137.519 67.4607 137.951 67.1967 137.951 66.7647C137.951 66.4047 137.279 66.1407 136.247 65.7567C134.615 65.1567 132.311 64.2927 132.311 61.9647C132.311 59.6607 134.351 58.3647 136.967 58.3647C138.551 58.3647 140.639 59.3007 141.335 61.4607L138.431 62.5887C137.999 61.4127 137.303 61.3647 136.967 61.3647C136.223 61.3647 135.959 61.6047 135.959 61.9647C135.959 62.2767 136.607 62.5167 137.615 62.9007C139.247 63.5007 141.575 64.3887 141.575 66.6687C141.575 68.9727 139.655 70.4607 136.655 70.4607C134.759 70.4607 132.551 69.0927 131.879 67.3647L134.639 65.8287Z" fill="#EBECF5"/>
<path fill-rule="evenodd" clip-rule="evenodd" d="M57.3716 6.85528C62.5981 1.91867 70.2806 -0.104831 76.5706 0.0041653L76.5701 0.00619803C76.8131 0.022651 77.0705 0.0351235 77.3376 0.0480615C77.9265 0.0765897 78.5621 0.107381 79.1925 0.188097C83.428 0.7028 87.3168 2.40587 90.5072 4.9973C93.6357 4.21717 96.7583 3.91794 99.8107 4.21667C103.199 4.54845 106.504 5.58973 109.627 7.4578C115.877 11.1949 120.44 17.5608 121.209 24.9693C121.484 27.6152 121.513 30.5452 119.538 33.1293C119.353 33.3693 119.116 33.5669 118.844 33.7044C114.149 36.0702 109.088 37.6131 103.88 38.2701L49.1843 45.1608C40.2489 47.0067 31.0277 46.7927 22.1642 44.6408C22.1238 44.6383 22.1238 44.6418 22.1238 44.6408C21.9876 44.6362 21.8523 44.6244 21.7201 44.584C21.6855 44.5831 21.6806 44.5856 21.6799 44.5848C21.6798 44.5846 21.6799 44.5851 21.6799 44.5848C21.6559 44.5812 21.6319 44.5703 21.6082 44.5603C21.5794 44.548 21.5507 44.5358 21.5223 44.5358C18.3438 43.4681 15.958 41.212 14.9152 38.4179C13.8722 35.6239 14.239 32.3285 16.1687 29.5163C18.8219 25.6503 22.0025 21.547 25.5751 19.4004C27.1023 18.4833 28.7998 17.818 30.566 17.3345C30.6323 17.1231 30.7332 16.921 30.8647 16.7436C35.4244 10.16 42.9009 6.24721 50.8521 6.30398C52.9788 6.31861 55.0613 6.63855 57.0648 7.19438C57.1539 7.06923 57.2568 6.9562 57.3716 6.85528ZM78.675 4.18885C78.0029 4.10811 77.2856 4.06371 76.5302 4.06371C71.7061 4.03469 65.4951 5.61009 61.3056 8.84187C65.0195 10.6877 68.2773 13.4593 70.6724 17.0181C70.7284 17.0905 70.7794 17.1662 70.8251 17.2452C71.3827 18.2105 71.0524 19.4455 70.0871 20.0028C69.1217 20.5607 67.8872 20.2304 67.3294 19.2651C63.5912 13.7098 57.415 10.3837 50.8031 10.3393C45.205 10.3007 39.9091 12.635 36.0983 16.6863C37.106 16.7481 38.1225 16.8816 39.1575 17.1437C48.3669 19.4642 50.6929 28.7576 50.6929 28.7576C50.6972 28.7742 50.7014 28.7916 50.7055 28.8088C50.9593 29.8942 50.2851 30.9799 49.1995 31.2337C48.1141 31.4875 47.0281 30.8134 46.7743 29.7277C46.7743 29.7277 45.0624 22.7903 38.1722 21.0542C34.3233 20.0843 30.7847 20.9649 27.6306 22.8597C25.2105 24.3132 21.9997 28.1185 19.4781 31.7928C18.2154 33.6324 18.0915 35.4225 18.6816 37.0044C19.267 38.574 20.6403 39.9529 22.7581 40.6788C31.1369 42.7633 39.8715 42.9535 48.3273 41.2071C48.3792 41.1914 48.4317 41.1781 48.4847 41.1667L103.337 34.2525C107.87 33.6808 112.24 32.2719 116.355 30.2787C117.252 28.9191 117.394 27.6308 117.159 25.3744C116.536 19.3703 112.773 14.0502 107.517 10.9062C103.24 8.34962 98.7391 7.69715 93.9077 8.44675C95.1302 10.0194 96.157 11.7784 96.9273 13.7058C96.9382 13.731 96.9483 13.756 96.9579 13.7817C97.3527 14.8238 96.8277 15.9894 95.7851 16.3845C94.7426 16.7794 93.5772 16.2546 93.1824 15.2118C90.7105 9.02906 85.2375 4.98512 78.675 4.18885Z" fill="#EBECF5"/>
</svg>
